<?xml version="1.0" encoding="UTF-8" standalone="no"?><!DOCTYPE svg PUBLIC "-//W3C//DTD SVG 1.1//EN" "http://www.w3.org/Graphics/SVG/1.1/DTD/svg11.dtd"><svg width="100%" height="100%" viewBox="0 0 289 152" version="1.1" xmlns="http://www.w3.org/2000/svg" xmlns:xlink="http://www.w3.org/1999/xlink" xml:space="preserve" xmlns:serif="http://www.serif.com/" style="fill-rule:evenodd;clip-rule:evenodd;stroke-linejoin:round;stroke-miterlimit:2;"><g><rect x="-0" y="0" width="243" height="75.913" style="fill:#00c251;"/><path d="M289,76l-0,75.913l-289,0l-0,-75.913l289,-0Zm-1,1c0,0 -268.517,-0 -287,0c-0,0 -0,73.913 -0,73.913c18.483,0 287,0 287,0l0,-73.913Z" style="fill:#00c251;"/><g transform="matrix(1.52174,0,0,1.52174,-15.2174,-15.2348)"><g transform="matrix(36,0,0,36,20,45.7695)"><path d="M0.036,-0.233l0.141,-0.014c0.008,0.048 0.025,0.082 0.051,0.104c0.026,0.023 0.061,0.034 0.105,0.034c0.047,-0 0.082,-0.01 0.105,-0.03c0.024,-0.02 0.036,-0.043 0.036,-0.069c-0,-0.017 -0.005,-0.031 -0.015,-0.043c-0.01,-0.012 -0.028,-0.022 -0.052,-0.031c-0.017,-0.006 -0.056,-0.017 -0.116,-0.031c-0.077,-0.02 -0.132,-0.043 -0.163,-0.071c-0.044,-0.04 -0.066,-0.088 -0.066,-0.144c0,-0.037 0.01,-0.071 0.031,-0.103c0.021,-0.031 0.05,-0.056 0.089,-0.072c0.039,-0.017 0.086,-0.025 0.141,-0.025c0.09,-0 0.158,0.02 0.203,0.059c0.046,0.039 0.069,0.092 0.072,0.158l-0.145,0.006c-0.006,-0.037 -0.019,-0.063 -0.04,-0.079c-0.02,-0.016 -0.051,-0.024 -0.091,-0.024c-0.042,-0 -0.075,0.008 -0.099,0.025c-0.015,0.012 -0.023,0.026 -0.023,0.045c0,0.017 0.007,0.031 0.022,0.043c0.018,0.016 0.062,0.032 0.132,0.048c0.071,0.017 0.123,0.034 0.156,0.052c0.034,0.017 0.061,0.042 0.08,0.072c0.019,0.031 0.028,0.069 0.028,0.115c0,0.041 -0.011,0.079 -0.034,0.115c-0.023,0.036 -0.055,0.062 -0.097,0.08c-0.041,0.017 -0.093,0.026 -0.155,0.026c-0.091,-0 -0.16,-0.021 -0.209,-0.063c-0.048,-0.042 -0.077,-0.103 -0.087,-0.183Z" style="fill:#fff;fill-rule:nonzero;"/></g><g transform="matrix(36,0,0,36,44.0117,45.7695)"><path d="M0.524,-0.365l-0.135,0.024c-0.005,-0.027 -0.015,-0.047 -0.031,-0.061c-0.016,-0.014 -0.037,-0.02 -0.063,-0.02c-0.034,-0 -0.062,0.011 -0.082,0.035c-0.02,0.024 -0.03,0.063 -0.03,0.118c-0,0.062 0.01,0.105 0.031,0.131c0.02,0.025 0.048,0.038 0.083,0.038c0.026,-0 0.047,-0.008 0.064,-0.022c0.016,-0.015 0.028,-0.041 0.035,-0.077l0.135,0.023c-0.014,0.062 -0.041,0.109 -0.081,0.14c-0.04,0.032 -0.093,0.048 -0.159,0.048c-0.076,-0 -0.137,-0.024 -0.182,-0.072c-0.045,-0.048 -0.067,-0.114 -0.067,-0.199c-0,-0.085 0.022,-0.152 0.067,-0.2c0.046,-0.047 0.107,-0.071 0.184,-0.071c0.063,-0 0.113,0.013 0.151,0.04c0.037,0.028 0.064,0.069 0.08,0.125Z" style="fill:#fff;fill-rule:nonzero;"/></g><g transform="matrix(36,0,0,36,64.0332,45.7695)"><path d="M0.174,-0.36l-0.124,-0.023c0.014,-0.05 0.038,-0.087 0.072,-0.111c0.034,-0.024 0.085,-0.036 0.152,-0.036c0.062,-0 0.107,0.007 0.137,0.021c0.03,0.015 0.051,0.033 0.063,0.056c0.013,0.022 0.019,0.063 0.019,0.122l-0.002,0.161c0,0.045 0.002,0.079 0.007,0.1c0.004,0.022 0.012,0.045 0.024,0.07l-0.135,-0c-0.004,-0.009 -0.008,-0.023 -0.013,-0.041c-0.003,-0.008 -0.004,-0.013 -0.005,-0.016c-0.024,0.023 -0.049,0.04 -0.076,0.052c-0.026,0.011 -0.055,0.017 -0.085,0.017c-0.053,-0 -0.095,-0.015 -0.126,-0.044c-0.031,-0.029 -0.046,-0.065 -0.046,-0.11c-0,-0.029 0.007,-0.055 0.021,-0.078c0.014,-0.023 0.033,-0.04 0.058,-0.053c0.026,-0.012 0.062,-0.023 0.11,-0.032c0.064,-0.012 0.108,-0.023 0.133,-0.033l-0,-0.014c-0,-0.026 -0.007,-0.045 -0.02,-0.056c-0.013,-0.012 -0.037,-0.017 -0.073,-0.017c-0.025,-0 -0.044,0.005 -0.057,0.014c-0.014,0.01 -0.025,0.027 -0.034,0.051Zm0.184,0.111c-0.018,0.006 -0.045,0.013 -0.084,0.021c-0.038,0.008 -0.063,0.016 -0.074,0.024c-0.018,0.013 -0.027,0.029 -0.027,0.048c-0,0.019 0.007,0.036 0.021,0.05c0.015,0.014 0.033,0.021 0.055,0.021c0.025,0 0.048,-0.008 0.071,-0.024c0.016,-0.013 0.027,-0.028 0.033,-0.046c0.003,-0.012 0.005,-0.034 0.005,-0.067l-0,-0.027Z" style="fill:#fff;fill-rule:nonzero;"/></g><g transform="matrix(36,0,0,36,84.0547,45.7695)"><rect x="0.072" y="-0.716" width="0.137" height="0.716" style="fill:#fff;fill-rule:nonzero;"/></g><g transform="matrix(36,0,0,36,94.0566,45.7695)"><path d="M0.072,-0.589l-0,-0.127l0.137,0l-0,0.127l-0.137,0Zm-0,0.589l-0,-0.519l0.137,0l-0,0.519l-0.137,-0Z" style="fill:#fff;fill-rule:nonzero;"/></g><g transform="matrix(36,0,0,36,104.059,45.7695)"><path d="M0.543,-0l-0.137,-0l0,-0.265c0,-0.056 -0.003,-0.092 -0.009,-0.108c-0.005,-0.017 -0.015,-0.03 -0.028,-0.039c-0.013,-0.009 -0.029,-0.013 -0.048,-0.013c-0.023,-0 -0.045,0.006 -0.064,0.019c-0.019,0.013 -0.031,0.031 -0.038,0.052c-0.007,0.021 -0.011,0.061 -0.011,0.119l0,0.235l-0.137,-0l-0,-0.519l0.127,0l0,0.077c0.045,-0.059 0.102,-0.088 0.171,-0.088c0.03,-0 0.058,0.005 0.083,0.016c0.025,0.011 0.044,0.025 0.057,0.042c0.013,0.017 0.022,0.036 0.027,0.057c0.005,0.022 0.007,0.053 0.007,0.093l0,0.322Z" style="fill:#fff;fill-rule:nonzero;"/></g><g transform="matrix(36,0,0,36,126.049,45.7695)"><path d="M0.059,0.034l0.157,0.019c0.002,0.018 0.008,0.031 0.018,0.038c0.013,0.01 0.033,0.014 0.061,0.014c0.036,0 0.063,-0.005 0.081,-0.016c0.012,-0.007 0.021,-0.018 0.027,-0.034c0.005,-0.012 0.007,-0.033 0.007,-0.063l-0,-0.076c-0.041,0.056 -0.093,0.084 -0.156,0.084c-0.069,-0 -0.124,-0.029 -0.165,-0.088c-0.032,-0.047 -0.048,-0.105 -0.048,-0.174c0,-0.087 0.021,-0.154 0.063,-0.199c0.042,-0.046 0.094,-0.069 0.156,-0.069c0.064,-0 0.117,0.028 0.158,0.084l0,-0.073l0.129,0l-0,0.466c-0,0.061 -0.005,0.107 -0.015,0.137c-0.01,0.03 -0.025,0.054 -0.043,0.071c-0.018,0.018 -0.042,0.031 -0.073,0.041c-0.03,0.01 -0.069,0.014 -0.115,0.014c-0.088,0 -0.15,-0.015 -0.187,-0.045c-0.037,-0.03 -0.055,-0.068 -0.055,-0.114c-0,-0.005 -0,-0.01 0,-0.017Zm0.123,-0.304c-0,0.055 0.01,0.095 0.032,0.121c0.021,0.025 0.047,0.038 0.078,0.038c0.034,0 0.062,-0.013 0.085,-0.039c0.024,-0.026 0.035,-0.065 0.035,-0.117c0,-0.053 -0.011,-0.093 -0.033,-0.119c-0.022,-0.026 -0.05,-0.039 -0.084,-0.039c-0.033,-0 -0.06,0.012 -0.081,0.038c-0.022,0.026 -0.032,0.065 -0.032,0.117Z" style="fill:#fff;fill-rule:nonzero;"/></g><g transform="matrix(36,0,0,36,20,93.7695)"><path d="M0.074,-0.716l0.547,0l0,0.154l-0.325,-0l0,0.125l0.278,-0l-0,0.145l-0.278,-0l0,0.292l-0.222,-0l0,-0.716Z" style="fill:#5100c2;fill-rule:nonzero;"/></g><g transform="matrix(36,0,0,36,44.0117,93.7695)"><path d="M0.067,-0.716l0.199,0l0,0.135l-0.199,0l0,-0.135Zm0,0.197l0.199,0l0,0.519l-0.199,-0l0,-0.519Z" style="fill:#5100c2;fill-rule:nonzero;"/></g><g transform="matrix(36,0,0,36,56,93.7695)"><path d="M0.038,-0.519l0.481,0l-0,0.117l-0.262,0.266l0.278,0l-0,0.136l-0.517,-0l0,-0.129l0.249,-0.254l-0.229,0l-0,-0.136Z" style="fill:#5100c2;fill-rule:nonzero;"/></g><g transform="matrix(36,0,0,36,76.0215,93.7695)"><path d="M0.038,-0.519l0.481,0l-0,0.117l-0.262,0.266l0.278,0l-0,0.136l-0.517,-0l0,-0.129l0.249,-0.254l-0.229,0l-0,-0.136Z" style="fill:#5100c2;fill-rule:nonzero;"/></g><g transform="matrix(36,0,0,36,96.043,93.7695)"><path d="M0.074,-0.716l0.414,0c0.069,0 0.122,0.017 0.159,0.051c0.037,0.035 0.055,0.077 0.055,0.127c0,0.043 -0.013,0.079 -0.039,0.109c-0.018,0.02 -0.044,0.036 -0.078,0.048c0.052,0.013 0.09,0.034 0.114,0.064c0.024,0.03 0.036,0.068 0.036,0.113c0,0.037 -0.008,0.071 -0.026,0.1c-0.017,0.03 -0.04,0.054 -0.07,0.071c-0.019,0.011 -0.047,0.018 -0.084,0.023c-0.05,0.007 -0.083,0.01 -0.099,0.01l-0.382,-0l-0,-0.716Zm0.223,0.281l0.096,-0c0.035,-0 0.059,-0.006 0.072,-0.018c0.014,-0.012 0.02,-0.029 0.02,-0.051c0,-0.021 -0.006,-0.038 -0.02,-0.049c-0.013,-0.012 -0.037,-0.018 -0.07,-0.018l-0.098,0l-0,0.136Zm-0,0.281l0.113,0c0.038,0 0.065,-0.007 0.08,-0.02c0.016,-0.014 0.024,-0.032 0.024,-0.055c-0,-0.021 -0.008,-0.038 -0.024,-0.051c-0.015,-0.012 -0.042,-0.019 -0.081,-0.019l-0.112,0l-0,0.145Z" style="fill:#c25100;fill-rule:nonzero;"/></g><g transform="matrix(36,0,0,36,124.045,93.7695)"><path d="M0.606,-0l-0.185,-0l-0,-0.084c-0.028,0.035 -0.056,0.059 -0.084,0.074c-0.028,0.014 -0.063,0.022 -0.104,0.022c-0.054,-0 -0.097,-0.017 -0.128,-0.049c-0.031,-0.033 -0.047,-0.083 -0.047,-0.151l0,-0.331l0.2,0l-0,0.286c-0,0.032 0.006,0.055 0.018,0.069c0.012,0.014 0.029,0.02 0.051,0.02c0.023,0 0.043,-0.009 0.058,-0.027c0.015,-0.018 0.023,-0.051 0.023,-0.098l-0,-0.25l0.198,0l0,0.519Z" style="fill:#c25100;fill-rule:nonzero;"/></g><g transform="matrix(36,0,0,36,148.057,93.7695)"><path d="M0.038,-0.519l0.481,0l-0,0.117l-0.262,0.266l0.278,0l-0,0.136l-0.517,-0l0,-0.129l0.249,-0.254l-0.229,0l-0,-0.136Z" style="fill:#c25100;fill-rule:nonzero;"/></g><g transform="matrix(36,0,0,36,168.078,93.7695)"><path d="M0.038,-0.519l0.481,0l-0,0.117l-0.262,0.266l0.278,0l-0,0.136l-0.517,-0l0,-0.129l0.249,-0.254l-0.229,0l-0,-0.136Z" style="fill:#c25100;fill-rule:nonzero;"/></g></g></g></svg>